<svg xmlns="http://www.w3.org/2000/svg" width="512" height="512"><rect id="backgroundrect" width="100%" height="100%" x="0" y="0" fill="none" stroke="none"/>

 <g style="">
  <title>background</title>
  <rect fill="none" id="canvas_background" height="402" width="582" y="-1" x="-1"/>
 </g>
 <g style="" class="currentLayer">
  <title>Layer 1</title>
  <g id="svg_2" class="selected" fill-opacity="1" fill="#000000">
   <g id="svg_3" fill="#000000" fill-opacity="1">
    <path stroke-width="0" id="svg_4" fill="#000000" class="active-path" d="m166.800003,0l-68.266998,0c-4.710007,0 -8.533005,3.814 -8.533005,8.533l0,68.267003c0,4.718994 3.822998,8.532997 8.533005,8.532997l68.266998,0c4.710007,0 8.533005,-3.814003 8.533005,-8.532997l0,-68.267003c0,-4.719 -3.822998,-8.533 -8.533005,-8.533zm-8.533005,68.266998l-51.199997,0l0,-51.199999l51.199997,0l0,51.199999z" fill-opacity="1"/>
   </g>
  </g>
  <g id="svg_5" class="selected" fill-opacity="1" fill="#000000">
   <g id="svg_6" fill="#000000" fill-opacity="1">
    <path stroke-width="0" id="svg_7" fill="#000000" class="active-path" d="m166.800003,426.666992l-68.266998,0c-4.710007,0 -8.533005,3.813995 -8.533005,8.53299l0,68.266998c0,4.719025 3.822998,8.53302 8.533005,8.53302l68.266998,0c4.710007,0 8.533005,-3.813995 8.533005,-8.53299l0,-68.266998c0,-4.719025 -3.822998,-8.53302 -8.533005,-8.53302zm-8.533005,68.266022l-51.199997,0l0,-51.200012l51.199997,0l0,51.200012z" fill-opacity="1"/>
   </g>
  </g>
  <path stroke-width="0" id="svg_21" fill="#000000" class="active-path selected" d="m149.733002,426.666992l-8.533005,0c0,-4.718994 -3.822998,-8.53299 -8.533005,-8.53299c-4.709991,0 -8.53299,3.813995 -8.53299,8.53299l0,8.53299c0,4.718994 3.822998,8.53302 8.53299,8.53302l17.067017,0c4.709991,0 8.53299,-3.814026 8.53299,-8.53302s-3.822998,-8.53299 -8.533997,-8.53299z" fill-opacity="1"/>
  <path stroke-width="0" id="svg_23" fill="#000000" class="active-path selected" d="m132.666992,298.666992c4.710007,0 8.533005,-3.813995 8.533005,-8.53299l0,-25.600006c0,-4.718994 -3.822998,-8.53302 -8.533005,-8.53302c-4.709991,0 -8.53299,3.814026 -8.53299,8.53302l0,25.600006c-0.001007,4.717987 3.821999,8.53299 8.53299,8.53299z" fill-opacity="1"/>
  <path stroke-width="0" id="svg_24" fill="#000000" class="active-path selected" d="m132.666992,238.932999c4.710007,0 8.533005,-3.813995 8.533005,-8.533005l0,-17.067001c0,-4.718994 -3.822998,-8.53299 -8.533005,-8.53299c-4.709991,0 -8.53299,3.813995 -8.53299,8.53299l0,17.067001c-0.001007,4.719009 3.821999,8.533005 8.53299,8.533005z" fill-opacity="1"/>
  <path stroke-width="0" id="svg_25" fill="#000000" class="active-path selected" d="m132.666992,187.733002c4.710007,0 8.533005,-3.813995 8.533005,-8.533005l0,-17.067001c0,-4.718994 -3.822998,-8.53299 -8.533005,-8.53299c-4.709991,0 -8.53299,3.813995 -8.53299,8.53299l0,17.067001c-0.001007,4.719009 3.821999,8.533005 8.53299,8.533005z" fill-opacity="1"/>
  <path stroke-width="0" id="svg_26" fill="#000000" class="active-path selected" d="m132.666992,136.533005c4.710007,0 8.533005,-3.814011 8.533005,-8.533005l0,-25.599998c0,-4.719002 -3.822998,-8.533005 -8.533005,-8.533005c-4.709991,0 -8.53299,3.814003 -8.53299,8.533005l0,25.599998c-0.001007,4.718994 3.821999,8.533005 8.53299,8.533005z" fill-opacity="1"/>
  <path stroke-width="0" id="svg_27" fill="#000000" class="active-path selected" d="m132.666992,349.867004c4.710007,0 8.533005,-3.813995 8.533005,-8.53299l0,-17.067017c0,-4.718994 -3.822998,-8.53299 -8.533005,-8.53299c-4.709991,0 -8.53299,3.813995 -8.53299,8.53299l0,17.067017c-0.001007,4.717987 3.821999,8.53299 8.53299,8.53299z" fill-opacity="1"/>
  <path stroke-width="0" id="svg_29" fill="#000000" class="active-path selected" d="m132.666992,401.066986c4.710007,0 8.533005,-3.813995 8.533005,-8.53299l0,-17.067017c0,-4.718994 -3.822998,-8.53299 -8.533005,-8.53299c-4.709991,0 -8.53299,3.813995 -8.53299,8.53299l0,17.067017c-0.001007,4.718018 3.821999,8.53299 8.53299,8.53299z" fill-opacity="1"/>
  <text font-weight="normal" transform="matrix(4.24979,0,0,4.63226,-774.73,-775.332) " xml:space="preserve" text-anchor="start" font-family="Helvetica, Arial, sans-serif" font-size="47" id="svg_44" y="246.172471" x="239.665667" stroke-width="0" stroke="#000" fill="#000000" class="selected" fill-opacity="1">M</text>
 </g>
</svg>