<svg xmlns="http://www.w3.org/2000/svg" width="512" height="512"><rect id="backgroundrect" width="100%" height="100%" x="0" y="0" fill="none" stroke="none"/>

 <g style="">
  <title>background</title>
  <rect fill="none" id="canvas_background" height="402" width="582" y="-1" x="-1"/>
 </g>
 <g style="" class="currentLayer">
  <title>Layer 1</title>
  <g id="svg_1" class="selected" fill-opacity="1" fill="#000000">
   <g id="svg_2" fill="#000000" fill-opacity="1">
    <g id="svg_3" fill="#000000" fill-opacity="1">
     <path stroke-width="0" id="svg_4" fill="#000000" class="active-path" d="m76.800003,0l-68.267003,0c-4.71,0 -8.533,3.814 -8.533,8.533l0,68.267003c0,4.718994 3.823,8.532997 8.533,8.532997l68.267003,0c4.709999,0 8.532997,-3.814003 8.532997,-8.532997l0,-68.267003c0,-4.719 -3.822998,-8.533 -8.532997,-8.533zm-8.533005,68.266998l-51.199999,0l0,-51.199999l51.199999,0l0,51.199999z" fill-opacity="1"/>
    </g>
   </g>
   <g id="svg_5" fill="#000000" fill-opacity="1">
    <g id="svg_6" fill="#000000" fill-opacity="1">
     <path stroke-width="0" id="svg_7" fill="#000000" class="active-path" d="m76.800003,426.666992l-68.267003,0c-4.71,0 -8.533,3.813995 -8.533,8.53299l0,68.266998c0,4.719025 3.823,8.53302 8.533,8.53302l68.267003,0c4.709999,0 8.532997,-3.813995 8.532997,-8.53299l0,-68.266998c0,-4.719025 -3.822998,-8.53302 -8.532997,-8.53302zm-8.533005,68.266022l-51.199999,0l0,-51.200012l51.199999,0l0,51.200012z" fill-opacity="1"/>
    </g>
   </g>
   <g id="svg_8" fill="#000000" fill-opacity="1">
    <g id="svg_9" fill="#000000" fill-opacity="1">
     <path stroke-width="0" id="svg_10" fill="#000000" class="active-path" d="m503.46701,0l-68.266998,0c-4.709991,0 -8.53299,3.814 -8.53299,8.533l0,68.267003c0,4.718994 3.822998,8.532997 8.53299,8.532997l68.266998,0c4.709991,0 8.53299,-3.814003 8.53299,-8.532997l0,-68.267003c0,-4.719 -3.822998,-8.533 -8.53299,-8.533zm-8.533997,68.266998l-51.200012,0l0,-51.199999l51.200012,0l0,51.199999z" fill-opacity="1"/>
    </g>
   </g>
   <g id="svg_11" fill="#000000" fill-opacity="1">
    <g id="svg_12" fill="#000000" fill-opacity="1">
     <path stroke-width="0" id="svg_13" fill="#000000" class="active-path" d="m503.46701,426.666992l-68.266998,0c-4.709991,0 -8.53299,3.813995 -8.53299,8.53299l0,68.266998c0,4.719025 3.822998,8.53302 8.53299,8.53302l68.266998,0c4.709991,0 8.53299,-3.813995 8.53299,-8.53302l0,-68.266968c0,-4.719025 -3.822998,-8.53302 -8.53299,-8.53302zm-8.533997,68.266022l-51.200012,0l0,-51.200012l51.200012,0l0,51.200012z" fill-opacity="1"/>
    </g>
   </g>
   <g id="svg_14" fill="#000000" fill-opacity="1">
    <g id="svg_15" fill="#000000" fill-opacity="1">
     <g id="svg_16" fill="#000000" fill-opacity="1">
      <path stroke-width="0" id="svg_17" fill="#000000" class="active-path" d="m128,460.799988l-17.067001,0c-4.709999,0 -8.532997,3.813995 -8.532997,8.53299s3.822998,8.53302 8.532997,8.53302l17.067001,0c4.710007,0 8.533005,-3.813995 8.533005,-8.53302s-3.822998,-8.53299 -8.533005,-8.53299z" fill-opacity="1"/>
      <path stroke-width="0" id="svg_18" fill="#000000" class="active-path" d="m85.333,34.132999l-8.532997,0c-4.710007,0 -8.533005,3.813999 -8.533005,8.533001l0,8.534c0,4.718998 3.822998,8.533001 8.533005,8.533001s8.532997,-3.814003 8.532997,-8.533001c4.709999,0 8.532997,-3.813999 8.532997,-8.533001s-3.821999,-8.534 -8.532997,-8.534z" fill-opacity="1"/>
      <path stroke-width="0" id="svg_19" fill="#000000" class="active-path" d="m145.067001,34.132999l-25.599998,0c-4.709999,0 -8.533005,3.813999 -8.533005,8.533001s3.823006,8.533001 8.533005,8.533001l25.599998,0c4.709991,0 8.533005,-3.814003 8.533005,-8.533001s-3.823013,-8.533001 -8.533005,-8.533001z" fill-opacity="1"/>
      <path stroke-width="0" id="svg_20" fill="#000000" class="active-path" d="m238.932999,460.799988l-17.067001,0c-4.709991,0 -8.533005,3.813995 -8.533005,8.53299s3.823013,8.53302 8.533005,8.53302l17.067001,0c4.710007,0 8.533005,-3.813995 8.533005,-8.53302s-3.822006,-8.53299 -8.533005,-8.53299z" fill-opacity="1"/>
      <path stroke-width="0" id="svg_21" fill="#000000" class="active-path" d="m59.733002,426.666992l-8.533001,0c0,-4.718994 -3.823002,-8.53299 -8.533001,-8.53299c-4.709999,0 -8.533001,3.813995 -8.533001,8.53299l0,8.53299c0,4.718994 3.823002,8.53302 8.533001,8.53302l17.067001,0c4.709999,0 8.532997,-3.814026 8.532997,-8.53302s-3.822998,-8.53299 -8.533997,-8.53299z" fill-opacity="1"/>
      <path stroke-width="0" id="svg_22" fill="#000000" class="active-path" d="m187.733002,460.799988l-25.600006,0c-4.709991,0 -8.53299,3.813995 -8.53299,8.53299s3.822998,8.53302 8.53299,8.53302l25.600006,0c4.709991,0 8.533005,-3.813995 8.533005,-8.53302s-3.822006,-8.53299 -8.533005,-8.53299z" fill-opacity="1"/>
      <path stroke-width="0" id="svg_23" fill="#000000" class="active-path" d="m42.667,298.666992c4.709999,0 8.533001,-3.813995 8.533001,-8.53299l0,-25.600006c0,-4.718994 -3.823002,-8.53302 -8.533001,-8.53302c-4.709999,0 -8.533001,3.814026 -8.533001,8.53302l0,25.600006c-0.000999,4.717987 3.822002,8.53299 8.533001,8.53299z" fill-opacity="1"/>
      <path stroke-width="0" id="svg_24" fill="#000000" class="active-path" d="m42.667,238.932999c4.709999,0 8.533001,-3.813995 8.533001,-8.533005l0,-17.067001c0,-4.718994 -3.823002,-8.53299 -8.533001,-8.53299c-4.709999,0 -8.533001,3.813995 -8.533001,8.53299l0,17.067001c-0.000999,4.719009 3.822002,8.533005 8.533001,8.533005z" fill-opacity="1"/>
      <path stroke-width="0" id="svg_25" fill="#000000" class="active-path" d="m42.667,187.733002c4.709999,0 8.533001,-3.813995 8.533001,-8.533005l0,-17.067001c0,-4.718994 -3.823002,-8.53299 -8.533001,-8.53299c-4.709999,0 -8.533001,3.813995 -8.533001,8.53299l0,17.067001c-0.000999,4.719009 3.822002,8.533005 8.533001,8.533005z" fill-opacity="1"/>
      <path stroke-width="0" id="svg_26" fill="#000000" class="active-path" d="m42.667,136.533005c4.709999,0 8.533001,-3.814011 8.533001,-8.533005l0,-25.599998c0,-4.719002 -3.823002,-8.533005 -8.533001,-8.533005c-4.709999,0 -8.533001,3.814003 -8.533001,8.533005l0,25.599998c-0.000999,4.718994 3.822002,8.533005 8.533001,8.533005z" fill-opacity="1"/>
      <path stroke-width="0" id="svg_27" fill="#000000" class="active-path" d="m42.667,349.867004c4.709999,0 8.533001,-3.813995 8.533001,-8.53299l0,-17.067017c0,-4.718994 -3.823002,-8.53299 -8.533001,-8.53299c-4.709999,0 -8.533001,3.813995 -8.533001,8.53299l0,17.067017c-0.000999,4.717987 3.822002,8.53299 8.533001,8.53299z" fill-opacity="1"/>
      <path stroke-width="0" id="svg_28" fill="#000000" class="active-path" d="m247.466995,34.132999l-17.067001,0c-4.710007,0 -8.533005,3.813999 -8.533005,8.533001s3.823013,8.534 8.533005,8.534l17.067001,0c4.709991,0 8.53299,-3.813999 8.53299,-8.533001s-3.822983,-8.534 -8.53299,-8.534z" fill-opacity="1"/>
      <path stroke-width="0" id="svg_29" fill="#000000" class="active-path" d="m42.667,401.066986c4.709999,0 8.533001,-3.813995 8.533001,-8.53299l0,-17.067017c0,-4.718994 -3.823002,-8.53299 -8.533001,-8.53299c-4.709999,0 -8.533001,3.813995 -8.533001,8.53299l0,17.067017c-0.000999,4.718018 3.822002,8.53299 8.533001,8.53299z" fill-opacity="1"/>
      <path stroke-width="0" id="svg_30" fill="#000000" class="active-path" d="m196.266998,34.132999l-17.067001,0c-4.709991,0 -8.53299,3.813999 -8.53299,8.533001s3.822998,8.534 8.53299,8.534l17.067001,0c4.710007,0 8.533005,-3.813999 8.533005,-8.533001s-3.822998,-8.534 -8.533005,-8.534z" fill-opacity="1"/>
      <path stroke-width="0" id="svg_31" fill="#000000" class="active-path" d="m469.333008,256c-4.709991,0 -8.53299,3.813995 -8.53299,8.53299l0,25.600006c0,4.718994 3.822998,8.53299 8.53299,8.53299s8.53299,-3.813995 8.53299,-8.53299l0,-25.600006c0.001007,-4.718994 -3.821991,-8.53299 -8.53299,-8.53299z" fill-opacity="1"/>
      <path stroke-width="0" id="svg_32" fill="#000000" class="active-path" d="m469.333008,366.933014c-4.709991,0 -8.53299,3.813995 -8.53299,8.53299l0,17.067017c0,4.718994 3.822998,8.53299 8.53299,8.53299s8.53299,-3.813995 8.53299,-8.53299l0,-17.067017c0.001007,-4.718018 -3.821991,-8.53299 -8.53299,-8.53299z" fill-opacity="1"/>
      <path stroke-width="0" id="svg_33" fill="#000000" class="active-path" d="m469.333008,315.733002c-4.709991,0 -8.53299,3.813995 -8.53299,8.53299l0,17.067017c0,4.718994 3.822998,8.53299 8.53299,8.53299s8.53299,-3.813995 8.53299,-8.53299l0,-17.067017c0.001007,-4.717987 -3.821991,-8.53299 -8.53299,-8.53299z" fill-opacity="1"/>
      <path stroke-width="0" id="svg_34" fill="#000000" class="active-path" d="m469.333008,204.800003c-4.709991,0 -8.53299,3.813995 -8.53299,8.53299l0,17.067001c0,4.718994 3.822998,8.53299 8.53299,8.53299s8.53299,-3.813995 8.53299,-8.53299l0,-17.067001c0.001007,-4.718994 -3.821991,-8.53299 -8.53299,-8.53299z" fill-opacity="1"/>
      <path stroke-width="0" id="svg_35" fill="#000000" class="active-path" d="m469.333008,93.866997c-4.709991,0 -8.53299,3.814003 -8.53299,8.533005l0,25.599998c0,4.718994 3.822998,8.533005 8.53299,8.533005s8.53299,-3.814011 8.53299,-8.533005l0,-25.599998c0.001007,-4.719002 -3.821991,-8.533005 -8.53299,-8.533005z" fill-opacity="1"/>
      <path stroke-width="0" id="svg_36" fill="#000000" class="active-path" d="m469.333008,153.600006c-4.709991,0 -8.53299,3.814011 -8.53299,8.533005l0,17.066986c0,4.719009 3.822998,8.533005 8.53299,8.533005s8.53299,-3.813995 8.53299,-8.533005l0,-17.067001c0.001007,-4.718994 -3.821991,-8.53299 -8.53299,-8.53299z" fill-opacity="1"/>
      <path stroke-width="0" id="svg_37" fill="#000000" class="active-path" d="m401.066986,460.799988l-17.066986,0c-4.709991,0 -8.53299,3.813995 -8.53299,8.53299s3.822998,8.53302 8.53299,8.53302l17.066986,0c4.710022,0 8.53302,-3.813995 8.53302,-8.53302s-3.822998,-8.53299 -8.53302,-8.53299z" fill-opacity="1"/>
      <path stroke-width="0" id="svg_38" fill="#000000" class="active-path" d="m349.867004,460.799988l-25.600006,0c-4.709991,0 -8.53299,3.813995 -8.53299,8.53299s3.822998,8.53302 8.53299,8.53302l25.600006,0c4.709991,0 8.53299,-3.813995 8.53299,-8.53302s-3.822998,-8.53299 -8.53299,-8.53299z" fill-opacity="1"/>
      <path stroke-width="0" id="svg_39" fill="#000000" class="active-path" d="m307.200012,34.132999l-25.600006,0c-4.709991,0 -8.53299,3.813999 -8.53299,8.533001s3.822998,8.534 8.53299,8.534l25.600006,0c4.709991,0 8.53299,-3.813999 8.53299,-8.533001s-3.822998,-8.534 -8.53299,-8.534z" fill-opacity="1"/>
      <path stroke-width="0" id="svg_40" fill="#000000" class="active-path" d="m358.399994,34.132999l-17.067017,0c-4.709991,0 -8.53299,3.813999 -8.53299,8.533001s3.822998,8.533001 8.53299,8.533001l17.067017,0c4.709991,0 8.53299,-3.814003 8.53299,-8.533001s-3.822998,-8.533001 -8.53299,-8.533001z" fill-opacity="1"/>
      <path stroke-width="0" id="svg_41" fill="#000000" class="active-path" d="m290.132996,460.799988l-17.066986,0c-4.710022,0 -8.53302,3.813995 -8.53302,8.53299s3.822998,8.53302 8.53302,8.53302l17.066986,0c4.709991,0 8.53299,-3.813995 8.53299,-8.53302s-3.821991,-8.53299 -8.53299,-8.53299z" fill-opacity="1"/>
      <path stroke-width="0" id="svg_42" fill="#000000" class="active-path" d="m409.600006,34.132999l-17.066986,0c-4.710022,0 -8.53302,3.813999 -8.53302,8.533001s3.822998,8.533001 8.53302,8.533001l17.066986,0c4.709991,0 8.53299,-3.814003 8.53299,-8.533001s-3.822998,-8.533001 -8.53299,-8.533001z" fill-opacity="1"/>
      <path stroke-width="0" id="svg_43" fill="#000000" class="active-path" d="m469.333008,418.132996c-4.709991,0 -8.53299,3.813995 -8.53299,8.53299l-8.53302,0c-4.709991,0 -8.53299,3.814026 -8.53299,8.53302s3.822998,8.53299 8.53299,8.53299l17.067017,0c4.709991,0 8.53299,-3.813995 8.53299,-8.53299l0,-8.53302c0,-4.717987 -3.822998,-8.53299 -8.533997,-8.53299z" fill-opacity="1"/>
     </g>
    </g>
   </g>
  </g>
  <text font-weight="normal" transform="matrix(4.24979,0,0,4.63226,-774.73,-775.332) " xml:space="preserve" text-anchor="start" font-family="Helvetica, Arial, sans-serif" font-size="47" id="svg_44" y="246.172471" x="218.488165" stroke-width="0" stroke="#000" fill="#000000" class="selected" fill-opacity="1">M</text>
  <text transform="matrix(2.03985,0,0,2.03985,-431.28,-58.2635) " font-weight="bold" xml:space="preserve" text-anchor="start" font-family="Helvetica, Arial, sans-serif" font-size="76" id="svg_45" y="128.89139" x="372.480464" stroke-width="0" stroke="#000" fill="#000000" class="selected" fill-opacity="1">2</text>
 </g>
</svg>